<svg xmlns="http://www.w3.org/2000/svg" xmlns:v="https://svgstorm.com"
viewBox = "0 0 364 249"
width="364"
height="249">
<g fill="None" fill-opacity="0.0" stroke="#FFFFFF" stroke-opacity="1.00" stroke-width="0.3"><path d="
M 0.00 249.00 
L 364.00 249.00
L 364.00 0.00
L 0.00 0.00
L 0.00 249.00
M 347.00 150.00 
C 360.91 155.54 354.74 172.73 350.68 183.68 C 346.62 194.63 335.72 207.48 322.00 204.00
C 332.91 171.26 303.97 136.86 270.99 137.01 C 238.02 137.16 208.66 171.76 221.00 204.00
C 198.33 204.00 175.67 204.00 153.00 204.00
C 164.00 171.01 135.34 136.75 101.99 137.01 C 68.65 137.27 41.07 171.31 51.00 204.00
C 27.69 208.54 18.19 169.90 34.00 158.00
C 32.44 145.02 38.75 132.62 43.92 121.92 C 49.09 111.21 61.84 108.61 66.30 98.30 C 70.76 87.99 71.78 73.05 78.25 63.25 C 84.73 53.45 88.03 44.40 97.25 36.25 C 106.46 28.10 113.50 23.07 124.68 17.68 C 135.86 12.29 149.85 9.13 163.00 9.00 C 176.15 8.87 192.44 9.57 204.07 13.93 C 215.71 18.28 226.22 21.72 235.75 29.25 C 245.28 36.79 252.80 41.64 259.75 51.25 C 266.71 60.86 272.71 68.94 275.93 81.07 C 279.15 93.21 297.98 90.43 308.08 95.92 C 318.17 101.41 327.02 105.77 334.75 115.25 C 342.48 124.72 347.23 137.49 347.00 150.00
M 106.00 150.00 
C 134.78 152.91 151.99 187.24 134.75 210.75 C 117.52 234.27 81.98 233.56 67.25 207.75 C 52.51 181.94 75.54 146.92 106.00 150.00
M 275.00 150.00 
C 303.54 154.08 321.04 186.53 303.75 210.75 C 286.46 234.96 251.07 232.90 236.25 207.75 C 221.43 182.61 244.32 145.62 275.00 150.00 Z"/>
</g>
<g fill="None" fill-opacity="0.0" stroke="#000000" stroke-opacity="1.00" stroke-width="0.3"><path d="
M 347.00 150.00 
C 347.23 137.49 342.48 124.72 334.75 115.25 C 327.02 105.77 318.17 101.41 308.08 95.92 C 297.98 90.43 279.15 93.21 275.93 81.07 C 272.71 68.94 266.71 60.86 259.75 51.25 C 252.80 41.64 245.28 36.79 235.75 29.25 C 226.22 21.72 215.71 18.28 204.07 13.93 C 192.44 9.57 176.15 8.87 163.00 9.00 C 149.85 9.13 135.86 12.29 124.68 17.68 C 113.50 23.07 106.46 28.10 97.25 36.25 C 88.03 44.40 84.73 53.45 78.25 63.25 C 71.78 73.05 70.76 87.99 66.30 98.30 C 61.84 108.61 49.09 111.21 43.92 121.92 C 38.75 132.62 32.44 145.02 34.00 158.00
C 18.19 169.90 27.69 208.54 51.00 204.00
C 41.07 171.31 68.65 137.27 101.99 137.01 C 135.34 136.75 164.00 171.01 153.00 204.00
C 175.67 204.00 198.33 204.00 221.00 204.00
C 208.66 171.76 238.02 137.16 270.99 137.01 C 303.97 136.86 332.91 171.26 322.00 204.00
C 335.72 207.48 346.62 194.63 350.68 183.68 C 354.74 172.73 360.91 155.54 347.00 150.00
M 254.00 87.00 
C 240.40 90.60 227.84 86.86 213.00 88.00 C 198.16 89.14 184.44 86.67 169.00 88.00 C 153.56 89.33 141.55 85.59 125.00 88.00 C 108.45 90.41 114.36 73.38 120.31 63.31 C 126.25 53.23 131.79 46.19 141.25 39.25 C 150.71 32.30 165.22 30.15 177.00 31.00 C 188.78 31.85 201.15 35.74 211.23 40.77 C 221.31 45.80 229.06 50.98 236.75 59.25 C 244.44 67.51 249.78 76.84 254.00 87.00 Z"/>
</g>
<g fill="None" fill-opacity="0.0" stroke="#FFFFFF" stroke-opacity="1.00" stroke-width="0.3"><path d="
M 254.00 87.00 
C 249.78 76.84 244.44 67.51 236.75 59.25 C 229.06 50.98 221.31 45.80 211.23 40.77 C 201.15 35.74 188.78 31.85 177.00 31.00 C 165.22 30.15 150.71 32.30 141.25 39.25 C 131.79 46.19 126.25 53.23 120.31 63.31 C 114.36 73.38 108.45 90.41 125.00 88.00 C 141.55 85.59 153.56 89.33 169.00 88.00 C 184.44 86.67 198.16 89.14 213.00 88.00 C 227.84 86.86 240.40 90.60 254.00 87.00 Z"/>
</g>
<g fill="None" fill-opacity="0.0" stroke="#000000" stroke-opacity="1.00" stroke-width="0.3"><path d="
M 106.00 150.00 
C 75.54 146.92 52.51 181.94 67.25 207.75 C 81.98 233.56 117.52 234.27 134.75 210.75 C 151.99 187.24 134.78 152.91 106.00 150.00
M 119.00 178.00 
C 123.98 189.79 118.05 205.54 103.98 206.98 C 89.90 208.41 79.11 192.74 86.31 180.31 C 93.51 167.87 109.36 169.22 119.00 178.00 Z"/>
</g>
<g fill="None" fill-opacity="0.0" stroke="#000000" stroke-opacity="1.00" stroke-width="0.3"><path d="
M 275.00 150.00 
C 244.32 145.62 221.43 182.61 236.25 207.75 C 251.07 232.90 286.46 234.96 303.75 210.75 C 321.04 186.53 303.54 154.08 275.00 150.00
M 276.00 171.00 
C 298.13 175.58 290.28 212.14 267.33 206.67 C 244.38 201.20 252.04 166.04 276.00 171.00 Z"/>
</g>
<g fill="None" fill-opacity="0.0" stroke="#FFFFFF" stroke-opacity="1.00" stroke-width="0.3"><path d="
M 119.00 178.00 
C 109.36 169.22 93.51 167.87 86.31 180.31 C 79.11 192.74 89.90 208.41 103.98 206.98 C 118.05 205.54 123.98 189.79 119.00 178.00 Z"/>
</g>
<g fill="None" fill-opacity="0.0" stroke="#FFFFFF" stroke-opacity="1.00" stroke-width="0.3"><path d="
M 276.00 171.00 
C 252.04 166.04 244.38 201.20 267.33 206.67 C 290.28 212.14 298.13 175.58 276.00 171.00 Z"/>
</g>
<g fill="#FFFFFF" fill-opacity="1.00" stroke="None">
<path d="
M 0.00 249.00 
L 364.00 249.00
L 364.00 0.00
L 0.00 0.00
L 0.00 249.00
M 347.00 150.00 
C 360.91 155.54 354.74 172.73 350.68 183.68 C 346.62 194.63 335.72 207.48 322.00 204.00
C 332.91 171.26 303.97 136.86 270.99 137.01 C 238.02 137.16 208.66 171.76 221.00 204.00
C 198.33 204.00 175.67 204.00 153.00 204.00
C 164.00 171.01 135.34 136.75 101.99 137.01 C 68.65 137.27 41.07 171.31 51.00 204.00
C 27.69 208.54 18.19 169.90 34.00 158.00
C 32.44 145.02 38.75 132.62 43.92 121.92 C 49.09 111.21 61.84 108.61 66.30 98.30 C 70.76 87.99 71.78 73.05 78.25 63.25 C 84.73 53.45 88.03 44.40 97.25 36.25 C 106.46 28.10 113.50 23.07 124.68 17.68 C 135.86 12.29 149.85 9.13 163.00 9.00 C 176.15 8.87 192.44 9.57 204.07 13.93 C 215.71 18.28 226.22 21.72 235.75 29.25 C 245.28 36.79 252.80 41.64 259.75 51.25 C 266.71 60.86 272.71 68.94 275.93 81.07 C 279.15 93.21 297.98 90.43 308.08 95.92 C 318.17 101.41 327.02 105.77 334.75 115.25 C 342.48 124.72 347.23 137.49 347.00 150.00
M 106.00 150.00 
C 134.78 152.91 151.99 187.24 134.75 210.75 C 117.52 234.27 81.98 233.56 67.25 207.75 C 52.51 181.94 75.54 146.92 106.00 150.00
M 275.00 150.00 
C 303.54 154.08 321.04 186.53 303.75 210.75 C 286.46 234.96 251.07 232.90 236.25 207.75 C 221.43 182.61 244.32 145.62 275.00 150.00 Z"/>
</g>
<g fill="#000000" fill-opacity="1.00" stroke="None">
<path d="
M 347.00 150.00 
C 347.23 137.49 342.48 124.72 334.75 115.25 C 327.02 105.77 318.17 101.41 308.08 95.92 C 297.98 90.43 279.15 93.21 275.93 81.07 C 272.71 68.94 266.71 60.86 259.75 51.25 C 252.80 41.64 245.28 36.79 235.75 29.25 C 226.22 21.72 215.71 18.28 204.07 13.93 C 192.44 9.57 176.15 8.87 163.00 9.00 C 149.85 9.13 135.86 12.29 124.68 17.68 C 113.50 23.07 106.46 28.10 97.25 36.25 C 88.03 44.40 84.73 53.45 78.25 63.25 C 71.78 73.05 70.76 87.99 66.30 98.30 C 61.84 108.61 49.09 111.21 43.92 121.92 C 38.75 132.62 32.44 145.02 34.00 158.00
C 18.19 169.90 27.69 208.54 51.00 204.00
C 41.07 171.31 68.65 137.27 101.99 137.01 C 135.34 136.75 164.00 171.01 153.00 204.00
C 175.67 204.00 198.33 204.00 221.00 204.00
C 208.66 171.76 238.02 137.16 270.99 137.01 C 303.97 136.86 332.91 171.26 322.00 204.00
C 335.72 207.48 346.62 194.63 350.68 183.68 C 354.74 172.73 360.91 155.54 347.00 150.00
M 254.00 87.00 
C 240.40 90.60 227.84 86.86 213.00 88.00 C 198.16 89.14 184.44 86.67 169.00 88.00 C 153.56 89.33 141.55 85.59 125.00 88.00 C 108.45 90.41 114.36 73.38 120.31 63.31 C 126.25 53.23 131.79 46.19 141.25 39.25 C 150.71 32.30 165.22 30.15 177.00 31.00 C 188.78 31.85 201.15 35.74 211.23 40.77 C 221.31 45.80 229.06 50.98 236.75 59.25 C 244.44 67.51 249.78 76.84 254.00 87.00 Z"/>
</g>
<g fill="#FFFFFF" fill-opacity="1.00" stroke="None">
<path d="
M 254.00 87.00 
C 249.78 76.84 244.44 67.51 236.75 59.25 C 229.06 50.98 221.31 45.80 211.23 40.77 C 201.15 35.74 188.78 31.85 177.00 31.00 C 165.22 30.15 150.71 32.30 141.25 39.25 C 131.79 46.19 126.25 53.23 120.31 63.31 C 114.36 73.38 108.45 90.41 125.00 88.00 C 141.55 85.59 153.56 89.33 169.00 88.00 C 184.44 86.67 198.16 89.14 213.00 88.00 C 227.84 86.86 240.40 90.60 254.00 87.00 Z"/>
</g>
<g fill="#000000" fill-opacity="1.00" stroke="None">
<path d="
M 106.00 150.00 
C 75.54 146.92 52.51 181.94 67.25 207.75 C 81.98 233.56 117.52 234.27 134.75 210.75 C 151.99 187.24 134.78 152.91 106.00 150.00
M 119.00 178.00 
C 123.98 189.79 118.05 205.54 103.98 206.98 C 89.90 208.41 79.11 192.74 86.31 180.31 C 93.51 167.87 109.36 169.22 119.00 178.00 Z"/>
</g>
<g fill="#000000" fill-opacity="1.00" stroke="None">
<path d="
M 275.00 150.00 
C 244.32 145.62 221.43 182.61 236.25 207.75 C 251.07 232.90 286.46 234.96 303.75 210.75 C 321.04 186.53 303.54 154.08 275.00 150.00
M 276.00 171.00 
C 298.13 175.58 290.28 212.14 267.33 206.67 C 244.38 201.20 252.04 166.04 276.00 171.00 Z"/>
</g>
<g fill="#FFFFFF" fill-opacity="1.00" stroke="None">
<path d="
M 119.00 178.00 
C 109.36 169.22 93.51 167.87 86.31 180.31 C 79.11 192.74 89.90 208.41 103.98 206.98 C 118.05 205.54 123.98 189.79 119.00 178.00 Z"/>
</g>
<g fill="#FFFFFF" fill-opacity="1.00" stroke="None">
<path d="
M 276.00 171.00 
C 252.04 166.04 244.38 201.20 267.33 206.67 C 290.28 212.14 298.13 175.58 276.00 171.00 Z"/>
</g>
</svg>