<svg xmlns="http://www.w3.org/2000/svg" xmlns:v="https://svgstorm.com"
viewBox = "0 0 364 249"
width="364"
height="249">
<g fill="None" fill-opacity="0.0" stroke="#FFFFFF" stroke-opacity="1.00" stroke-width="0.3"><path d="
M 0.00 249.00 
L 364.00 249.00
L 364.00 0.00
L 0.00 0.00
L 0.00 249.00
M 258.00 63.00 
C 262.00 54.64 271.50 55.51 278.69 60.31 C 285.89 65.10 293.56 64.60 301.08 69.92 C 308.59 75.25 317.28 71.93 324.69 68.69 C 332.11 65.46 340.15 57.72 348.22 63.78 C 356.29 69.83 344.39 77.36 338.77 80.77 C 333.15 84.18 319.61 86.24 320.01 95.01 C 320.40 103.78 317.42 115.20 317.01 124.01 C 316.60 132.82 302.76 137.58 302.01 126.99 C 301.26 116.40 299.09 109.00 297.00 99.00
C 288.16 102.93 278.81 107.25 270.26 111.26 C 261.70 115.27 261.23 129.69 250.00 130.00
C 249.61 124.83 254.39 114.79 250.25 110.75 C 246.10 106.72 238.93 105.69 234.00 103.00
C 234.57 98.72 240.44 98.89 243.00 96.00
C 229.46 95.41 215.87 113.18 200.00 104.00
C 205.65 102.31 209.23 97.31 208.00 91.00 C 206.77 84.69 214.30 82.60 218.68 83.34 C 223.06 84.08 229.54 89.77 234.67 87.67 C 239.80 85.57 240.10 78.39 246.00 77.00
C 234.55 63.35 218.99 54.30 203.00 49.00
C 208.57 61.29 190.00 59.68 189.70 71.70 C 189.39 83.72 176.57 85.00 170.25 75.75 C 163.93 66.50 152.87 68.43 145.77 62.23 C 138.68 56.02 135.79 42.76 124.93 48.93 C 114.07 55.10 109.31 54.99 100.00 62.00
C 108.92 64.01 117.09 63.42 126.00 66.00 C 134.91 68.58 134.19 74.75 141.75 80.25 C 149.32 85.74 146.71 90.28 137.00 92.00
C 143.84 98.36 142.61 101.37 145.32 110.68 C 148.03 119.99 141.51 122.22 133.31 124.31 C 125.10 126.39 129.33 139.02 120.92 141.92 C 112.51 144.82 107.45 136.17 99.77 143.77 C 92.09 151.37 109.66 151.52 112.00 156.00
C 103.82 160.41 85.71 165.68 83.08 151.92 C 80.46 138.16 72.47 133.76 62.00 127.00
C 60.82 141.78 65.25 155.29 71.00 168.00
C 65.46 169.64 60.28 172.90 54.00 172.00
C 45.01 152.81 42.08 125.14 48.99 104.99 C 55.90 84.84 64.94 71.11 81.25 57.25 C 97.55 43.38 114.11 36.34 135.01 31.01 C 155.91 25.67 185.68 27.96 206.07 33.93 C 226.47 39.89 241.81 50.78 258.00 63.00
M 248.00 121.00 
C 235.87 126.80 224.73 133.50 212.31 139.31 C 199.88 145.11 188.65 151.82 175.78 156.78 C 162.91 161.74 151.59 169.04 137.93 172.93 C 124.26 176.81 112.01 182.85 97.92 186.92 C 83.84 191.00 65.78 193.64 50.33 192.67 C 34.88 191.70 28.36 171.27 46.00 167.00
C 41.34 184.24 64.77 174.60 76.07 172.07 C 87.37 169.54 103.41 165.03 115.08 161.08 C 126.74 157.12 140.80 152.70 152.25 148.25 C 163.69 143.79 176.81 139.74 187.68 134.68 C 198.55 129.62 211.48 124.80 221.23 118.23 C 230.98 111.66 250.31 102.63 248.00 121.00
M 74.00 197.00 
C 80.14 195.83 88.28 191.11 93.70 195.30 C 99.11 199.49 103.51 204.41 110.00 206.00
C 110.34 198.83 111.74 191.95 113.00 185.00
C 121.48 182.87 129.46 179.03 138.00 177.00
C 134.65 183.06 134.21 190.15 129.75 195.75 C 125.30 201.36 118.85 204.34 116.00 210.00
C 126.92 212.71 135.20 218.54 147.01 218.99 C 158.82 219.45 173.54 223.04 185.67 218.67 C 197.80 214.31 183.93 201.39 181.69 192.31 C 179.46 183.22 190.54 175.10 195.25 166.25 C 199.96 157.40 218.63 159.51 220.00 150.00
C 217.96 149.70 214.73 148.71 215.00 146.00
C 223.97 146.84 231.37 134.09 240.08 135.08 C 248.78 136.06 262.63 134.57 264.77 124.77 C 266.91 114.97 280.93 107.67 283.00 117.00 C 285.07 126.34 283.87 141.73 282.07 151.07 C 280.27 160.42 276.48 169.84 271.70 177.70 C 266.91 185.55 262.66 191.85 256.25 198.25 C 249.83 204.64 243.60 209.87 235.75 214.75 C 227.90 219.63 220.74 223.33 211.78 226.78 C 202.81 230.22 192.00 232.62 181.99 233.99 C 171.98 235.37 156.96 235.37 147.00 234.00 C 137.04 232.63 127.06 229.92 118.26 226.74 C 109.46 223.57 100.94 219.48 93.31 214.69 C 85.67 209.91 78.99 204.53 74.00 197.00 Z"/>
</g>
<g fill="None" fill-opacity="0.0" stroke="#000000" stroke-opacity="1.00" stroke-width="0.3"><path d="
M 258.00 63.00 
C 241.81 50.78 226.47 39.89 206.07 33.93 C 185.68 27.96 155.91 25.67 135.01 31.01 C 114.11 36.34 97.55 43.38 81.25 57.25 C 64.94 71.11 55.90 84.84 48.99 104.99 C 42.08 125.14 45.01 152.81 54.00 172.00
C 60.28 172.90 65.46 169.64 71.00 168.00
C 65.25 155.29 60.82 141.78 62.00 127.00
C 72.47 133.76 80.46 138.16 83.08 151.92 C 85.71 165.68 103.82 160.41 112.00 156.00
C 109.66 151.52 92.09 151.37 99.77 143.77 C 107.45 136.17 112.51 144.82 120.92 141.92 C 129.33 139.02 125.10 126.39 133.31 124.31 C 141.51 122.22 148.03 119.99 145.32 110.68 C 142.61 101.37 143.84 98.36 137.00 92.00
C 146.71 90.28 149.32 85.74 141.75 80.25 C 134.19 74.75 134.91 68.58 126.00 66.00 C 117.09 63.42 108.92 64.01 100.00 62.00
C 109.31 54.99 114.07 55.10 124.93 48.93 C 135.79 42.76 138.68 56.02 145.77 62.23 C 152.87 68.43 163.93 66.50 170.25 75.75 C 176.57 85.00 189.39 83.72 189.70 71.70 C 190.00 59.68 208.57 61.29 203.00 49.00
C 218.99 54.30 234.55 63.35 246.00 77.00
C 240.10 78.39 239.80 85.57 234.67 87.67 C 229.54 89.77 223.06 84.08 218.68 83.34 C 214.30 82.60 206.77 84.69 208.00 91.00 C 209.23 97.31 205.65 102.31 200.00 104.00
C 215.87 113.18 229.46 95.41 243.00 96.00
C 240.44 98.89 234.57 98.72 234.00 103.00
C 238.93 105.69 246.10 106.72 250.25 110.75 C 254.39 114.79 249.61 124.83 250.00 130.00
C 261.23 129.69 261.70 115.27 270.26 111.26 C 278.81 107.25 288.16 102.93 297.00 99.00
C 299.09 109.00 301.26 116.40 302.01 126.99 C 302.76 137.58 316.60 132.82 317.01 124.01 C 317.42 115.20 320.40 103.78 320.01 95.01 C 319.61 86.24 333.15 84.18 338.77 80.77 C 344.39 77.36 356.29 69.83 348.22 63.78 C 340.15 57.72 332.11 65.46 324.69 68.69 C 317.28 71.93 308.59 75.25 301.08 69.92 C 293.56 64.60 285.89 65.10 278.69 60.31 C 271.50 55.51 262.00 54.64 258.00 63.00
M 288.00 87.00 
C 275.37 89.00 265.06 101.56 252.00 99.00
C 255.83 94.28 273.93 95.39 273.66 87.32 C 273.39 79.25 261.18 73.81 260.00 66.00
C 270.93 68.16 281.91 78.76 288.00 87.00 Z"/>
</g>
<g fill="None" fill-opacity="0.0" stroke="#FFFFFF" stroke-opacity="1.00" stroke-width="0.3"><path d="
M 288.00 87.00 
C 281.91 78.76 270.93 68.16 260.00 66.00
C 261.18 73.81 273.39 79.25 273.66 87.32 C 273.93 95.39 255.83 94.28 252.00 99.00
C 265.06 101.56 275.37 89.00 288.00 87.00 Z"/>
</g>
<g fill="None" fill-opacity="0.0" stroke="#000000" stroke-opacity="1.00" stroke-width="0.3"><path d="
M 248.00 121.00 
C 250.31 102.63 230.98 111.66 221.23 118.23 C 211.48 124.80 198.55 129.62 187.68 134.68 C 176.81 139.74 163.69 143.79 152.25 148.25 C 140.80 152.70 126.74 157.12 115.08 161.08 C 103.41 165.03 87.37 169.54 76.07 172.07 C 64.77 174.60 41.34 184.24 46.00 167.00
C 28.36 171.27 34.88 191.70 50.33 192.67 C 65.78 193.64 83.84 191.00 97.92 186.92 C 112.01 182.85 124.26 176.81 137.93 172.93 C 151.59 169.04 162.91 161.74 175.78 156.78 C 188.65 151.82 199.88 145.11 212.31 139.31 C 224.73 133.50 235.87 126.80 248.00 121.00 Z"/>
</g>
<g fill="None" fill-opacity="0.0" stroke="#000000" stroke-opacity="1.00" stroke-width="0.3"><path d="
M 74.00 197.00 
C 78.99 204.53 85.67 209.91 93.31 214.69 C 100.94 219.48 109.46 223.57 118.26 226.74 C 127.06 229.92 137.04 232.63 147.00 234.00 C 156.96 235.37 171.98 235.37 181.99 233.99 C 192.00 232.62 202.81 230.22 211.78 226.78 C 220.74 223.33 227.90 219.63 235.75 214.75 C 243.60 209.87 249.83 204.64 256.25 198.25 C 262.66 191.85 266.91 185.55 271.70 177.70 C 276.48 169.84 280.27 160.42 282.07 151.07 C 283.87 141.73 285.07 126.34 283.00 117.00 C 280.93 107.67 266.91 114.97 264.77 124.77 C 262.63 134.57 248.78 136.06 240.08 135.08 C 231.37 134.09 223.97 146.84 215.00 146.00
C 214.73 148.71 217.96 149.70 220.00 150.00
C 218.63 159.51 199.96 157.40 195.25 166.25 C 190.54 175.10 179.46 183.22 181.69 192.31 C 183.93 201.39 197.80 214.31 185.67 218.67 C 173.54 223.04 158.82 219.45 147.01 218.99 C 135.20 218.54 126.92 212.71 116.00 210.00
C 118.85 204.34 125.30 201.36 129.75 195.75 C 134.21 190.15 134.65 183.06 138.00 177.00
C 129.46 179.03 121.48 182.87 113.00 185.00
C 111.74 191.95 110.34 198.83 110.00 206.00
C 103.51 204.41 99.11 199.49 93.70 195.30 C 88.28 191.11 80.14 195.83 74.00 197.00 Z"/>
</g>
<g fill="#FFFFFF" fill-opacity="1.00" stroke="None">
<path d="
M 0.00 249.00 
L 364.00 249.00
L 364.00 0.00
L 0.00 0.00
L 0.00 249.00
M 258.00 63.00 
C 262.00 54.64 271.50 55.51 278.69 60.31 C 285.89 65.10 293.56 64.60 301.08 69.92 C 308.59 75.25 317.28 71.93 324.69 68.69 C 332.11 65.46 340.15 57.72 348.22 63.78 C 356.29 69.83 344.39 77.36 338.77 80.77 C 333.15 84.18 319.61 86.24 320.01 95.01 C 320.40 103.78 317.42 115.20 317.01 124.01 C 316.60 132.82 302.76 137.58 302.01 126.99 C 301.26 116.40 299.09 109.00 297.00 99.00
C 288.16 102.93 278.81 107.25 270.26 111.26 C 261.70 115.27 261.23 129.69 250.00 130.00
C 249.61 124.83 254.39 114.79 250.25 110.75 C 246.10 106.72 238.93 105.69 234.00 103.00
C 234.57 98.72 240.44 98.89 243.00 96.00
C 229.46 95.41 215.87 113.18 200.00 104.00
C 205.65 102.31 209.23 97.31 208.00 91.00 C 206.77 84.69 214.30 82.60 218.68 83.34 C 223.06 84.08 229.54 89.77 234.67 87.67 C 239.80 85.57 240.10 78.39 246.00 77.00
C 234.55 63.35 218.99 54.30 203.00 49.00
C 208.57 61.29 190.00 59.68 189.70 71.70 C 189.39 83.72 176.57 85.00 170.25 75.75 C 163.93 66.50 152.87 68.43 145.77 62.23 C 138.68 56.02 135.79 42.76 124.93 48.93 C 114.07 55.10 109.31 54.99 100.00 62.00
C 108.92 64.01 117.09 63.42 126.00 66.00 C 134.91 68.58 134.19 74.75 141.75 80.25 C 149.32 85.74 146.71 90.28 137.00 92.00
C 143.84 98.36 142.61 101.37 145.32 110.68 C 148.03 119.99 141.51 122.22 133.31 124.31 C 125.10 126.39 129.33 139.02 120.92 141.92 C 112.51 144.82 107.45 136.17 99.77 143.77 C 92.09 151.37 109.66 151.52 112.00 156.00
C 103.82 160.41 85.71 165.68 83.08 151.92 C 80.46 138.16 72.47 133.76 62.00 127.00
C 60.82 141.78 65.25 155.29 71.00 168.00
C 65.46 169.64 60.28 172.90 54.00 172.00
C 45.01 152.81 42.08 125.14 48.99 104.99 C 55.90 84.84 64.94 71.11 81.25 57.25 C 97.55 43.38 114.11 36.34 135.01 31.01 C 155.91 25.67 185.68 27.96 206.07 33.93 C 226.47 39.89 241.81 50.78 258.00 63.00
M 248.00 121.00 
C 235.87 126.80 224.73 133.50 212.31 139.31 C 199.88 145.11 188.65 151.82 175.78 156.78 C 162.91 161.74 151.59 169.04 137.93 172.93 C 124.26 176.81 112.01 182.85 97.92 186.92 C 83.84 191.00 65.78 193.64 50.33 192.67 C 34.88 191.70 28.36 171.27 46.00 167.00
C 41.34 184.24 64.77 174.60 76.07 172.07 C 87.37 169.54 103.41 165.03 115.08 161.08 C 126.74 157.12 140.80 152.70 152.25 148.25 C 163.69 143.79 176.81 139.74 187.68 134.68 C 198.55 129.62 211.48 124.80 221.23 118.23 C 230.98 111.66 250.31 102.63 248.00 121.00
M 74.00 197.00 
C 80.14 195.83 88.28 191.11 93.70 195.30 C 99.11 199.49 103.51 204.41 110.00 206.00
C 110.34 198.83 111.74 191.95 113.00 185.00
C 121.48 182.87 129.46 179.03 138.00 177.00
C 134.65 183.06 134.21 190.15 129.75 195.75 C 125.30 201.36 118.85 204.34 116.00 210.00
C 126.92 212.71 135.20 218.54 147.01 218.99 C 158.82 219.45 173.54 223.04 185.67 218.67 C 197.80 214.31 183.93 201.39 181.69 192.31 C 179.46 183.22 190.54 175.10 195.25 166.25 C 199.96 157.40 218.63 159.51 220.00 150.00
C 217.96 149.70 214.73 148.71 215.00 146.00
C 223.97 146.84 231.37 134.09 240.08 135.08 C 248.78 136.06 262.63 134.57 264.77 124.77 C 266.91 114.97 280.93 107.67 283.00 117.00 C 285.07 126.34 283.87 141.73 282.07 151.07 C 280.27 160.42 276.48 169.84 271.70 177.70 C 266.91 185.55 262.66 191.85 256.25 198.25 C 249.83 204.64 243.60 209.87 235.75 214.75 C 227.90 219.63 220.74 223.33 211.78 226.78 C 202.81 230.22 192.00 232.62 181.99 233.99 C 171.98 235.37 156.96 235.37 147.00 234.00 C 137.04 232.63 127.06 229.92 118.26 226.74 C 109.46 223.57 100.94 219.48 93.31 214.69 C 85.67 209.91 78.99 204.53 74.00 197.00 Z"/>
</g>
<g fill="#000000" fill-opacity="1.00" stroke="None">
<path d="
M 258.00 63.00 
C 241.81 50.78 226.47 39.89 206.07 33.93 C 185.68 27.96 155.91 25.67 135.01 31.01 C 114.11 36.34 97.55 43.38 81.25 57.25 C 64.94 71.11 55.90 84.84 48.99 104.99 C 42.08 125.14 45.01 152.81 54.00 172.00
C 60.28 172.90 65.46 169.64 71.00 168.00
C 65.25 155.29 60.82 141.78 62.00 127.00
C 72.47 133.76 80.46 138.16 83.08 151.92 C 85.71 165.68 103.82 160.41 112.00 156.00
C 109.66 151.52 92.09 151.37 99.77 143.77 C 107.45 136.17 112.51 144.82 120.92 141.92 C 129.33 139.02 125.10 126.39 133.31 124.31 C 141.51 122.22 148.03 119.99 145.32 110.68 C 142.61 101.37 143.84 98.36 137.00 92.00
C 146.71 90.28 149.32 85.74 141.75 80.25 C 134.19 74.75 134.91 68.58 126.00 66.00 C 117.09 63.42 108.92 64.01 100.00 62.00
C 109.31 54.99 114.07 55.10 124.93 48.93 C 135.79 42.76 138.68 56.02 145.77 62.23 C 152.87 68.43 163.93 66.50 170.25 75.75 C 176.57 85.00 189.39 83.72 189.70 71.70 C 190.00 59.68 208.57 61.29 203.00 49.00
C 218.99 54.30 234.55 63.35 246.00 77.00
C 240.10 78.39 239.80 85.57 234.67 87.67 C 229.54 89.77 223.06 84.08 218.68 83.34 C 214.30 82.60 206.77 84.69 208.00 91.00 C 209.23 97.31 205.65 102.31 200.00 104.00
C 215.87 113.18 229.46 95.41 243.00 96.00
C 240.44 98.89 234.57 98.72 234.00 103.00
C 238.93 105.69 246.10 106.72 250.25 110.75 C 254.39 114.79 249.61 124.83 250.00 130.00
C 261.23 129.69 261.70 115.27 270.26 111.26 C 278.81 107.25 288.16 102.93 297.00 99.00
C 299.09 109.00 301.26 116.40 302.01 126.99 C 302.76 137.58 316.60 132.82 317.01 124.01 C 317.42 115.20 320.40 103.78 320.01 95.01 C 319.61 86.24 333.15 84.18 338.77 80.77 C 344.39 77.36 356.29 69.83 348.22 63.78 C 340.15 57.72 332.11 65.46 324.69 68.69 C 317.28 71.93 308.59 75.25 301.08 69.92 C 293.56 64.60 285.89 65.10 278.69 60.31 C 271.50 55.51 262.00 54.64 258.00 63.00
M 288.00 87.00 
C 275.37 89.00 265.06 101.56 252.00 99.00
C 255.83 94.28 273.93 95.39 273.66 87.32 C 273.39 79.25 261.18 73.81 260.00 66.00
C 270.93 68.16 281.91 78.76 288.00 87.00 Z"/>
</g>
<g fill="#FFFFFF" fill-opacity="1.00" stroke="None">
<path d="
M 288.00 87.00 
C 281.91 78.76 270.93 68.16 260.00 66.00
C 261.18 73.81 273.39 79.25 273.66 87.32 C 273.93 95.39 255.83 94.28 252.00 99.00
C 265.06 101.56 275.37 89.00 288.00 87.00 Z"/>
</g>
<g fill="#000000" fill-opacity="1.00" stroke="None">
<path d="
M 248.00 121.00 
C 250.31 102.63 230.98 111.66 221.23 118.23 C 211.48 124.80 198.55 129.62 187.68 134.68 C 176.81 139.74 163.69 143.79 152.25 148.25 C 140.80 152.70 126.74 157.12 115.08 161.08 C 103.41 165.03 87.37 169.54 76.07 172.07 C 64.77 174.60 41.34 184.24 46.00 167.00
C 28.36 171.27 34.88 191.70 50.33 192.67 C 65.78 193.64 83.84 191.00 97.92 186.92 C 112.01 182.85 124.26 176.81 137.93 172.93 C 151.59 169.04 162.91 161.74 175.78 156.78 C 188.65 151.82 199.88 145.11 212.31 139.31 C 224.73 133.50 235.87 126.80 248.00 121.00 Z"/>
</g>
<g fill="#000000" fill-opacity="1.00" stroke="None">
<path d="
M 74.00 197.00 
C 78.99 204.53 85.67 209.91 93.31 214.69 C 100.94 219.48 109.46 223.57 118.26 226.74 C 127.06 229.92 137.04 232.63 147.00 234.00 C 156.96 235.37 171.98 235.37 181.99 233.99 C 192.00 232.62 202.81 230.22 211.78 226.78 C 220.74 223.33 227.90 219.63 235.75 214.75 C 243.60 209.87 249.83 204.64 256.25 198.25 C 262.66 191.85 266.91 185.55 271.70 177.70 C 276.48 169.84 280.27 160.42 282.07 151.07 C 283.87 141.73 285.07 126.34 283.00 117.00 C 280.93 107.67 266.91 114.97 264.77 124.77 C 262.63 134.57 248.78 136.06 240.08 135.08 C 231.37 134.09 223.97 146.84 215.00 146.00
C 214.73 148.71 217.96 149.70 220.00 150.00
C 218.63 159.51 199.96 157.40 195.25 166.25 C 190.54 175.10 179.46 183.22 181.69 192.31 C 183.93 201.39 197.80 214.31 185.67 218.67 C 173.54 223.04 158.82 219.45 147.01 218.99 C 135.20 218.54 126.92 212.71 116.00 210.00
C 118.85 204.34 125.30 201.36 129.75 195.75 C 134.21 190.15 134.65 183.06 138.00 177.00
C 129.46 179.03 121.48 182.87 113.00 185.00
C 111.74 191.95 110.34 198.83 110.00 206.00
C 103.51 204.41 99.11 199.49 93.70 195.30 C 88.28 191.11 80.14 195.83 74.00 197.00 Z"/>
</g>
</svg>