<svg width="36" height="36" viewBox="0 0 36 36" fill="none" xmlns="http://www.w3.org/2000/svg">
<g clip-path="url(#clip0_1045171_225)">
<path d="M9.50625 8.25469L7.67109 13.5H28.3289L26.4937 8.25469C26.1773 7.35469 25.3266 6.75 24.3703 6.75H11.6297C10.6734 6.75 9.82266 7.35469 9.50625 8.25469ZM2.78437 13.8375L5.25938 6.77109C6.20859 4.06406 8.76094 2.25 11.6297 2.25H24.3703C27.2391 2.25 29.7914 4.06406 30.7406 6.77109L33.2156 13.8375C34.8469 14.5125 36 16.1227 36 18V28.125V31.5C36 32.7445 34.9945 33.75 33.75 33.75H31.5C30.2555 33.75 29.25 32.7445 29.25 31.5V28.125H6.75V31.5C6.75 32.7445 5.74453 33.75 4.5 33.75H2.25C1.00547 33.75 0 32.7445 0 31.5V28.125V18C0 16.1227 1.15312 14.5125 2.78437 13.8375ZM9 20.25C9 19.6533 8.76295 19.081 8.34099 18.659C7.91903 18.2371 7.34674 18 6.75 18C6.15326 18 5.58097 18.2371 5.15901 18.659C4.73705 19.081 4.5 19.6533 4.5 20.25C4.5 20.8467 4.73705 21.419 5.15901 21.841C5.58097 22.2629 6.15326 22.5 6.75 22.5C7.34674 22.5 7.91903 22.2629 8.34099 21.841C8.76295 21.419 9 20.8467 9 20.25ZM29.25 22.5C29.8467 22.5 30.419 22.2629 30.841 21.841C31.2629 21.419 31.5 20.8467 31.5 20.25C31.5 19.6533 31.2629 19.081 30.841 18.659C30.419 18.2371 29.8467 18 29.25 18C28.6533 18 28.081 18.2371 27.659 18.659C27.2371 19.081 27 19.6533 27 20.25C27 20.8467 27.2371 21.419 27.659 21.841C28.081 22.2629 28.6533 22.5 29.25 22.5Z" fill="black"/>
</g>
<defs>
<clipPath id="clip0_1045171_225">
<path d="M0 0H36V36H0V0Z" fill="white"/>
</clipPath>
</defs>
</svg>
