<svg width="41" height="36" viewBox="0 0 41 36" fill="none" xmlns="http://www.w3.org/2000/svg">
<g clip-path="url(#clip0_1045171_232)">
<path d="M33.9117 13.5C36.3164 13.5 40.5 15.5391 40.5 18C40.5 20.5312 36.3164 22.5 33.9117 22.5H25.7133L18.6469 34.868C18.2461 35.5711 17.5008 36 16.6922 36H12.7406C11.9953 36 11.4539 35.2828 11.6578 34.5656L15.1031 22.5H7.875L4.8375 26.55C4.62656 26.8313 4.28906 27 3.9375 27H0.984375C0.435937 27 0 26.557 0 26.0156C0 25.9242 0.0140625 25.8328 0.0351562 25.7414L2.25 18L0.0351562 10.2586C0.00703125 10.1672 0 10.0758 0 9.98438C0 9.43594 0.442969 9 0.984375 9H3.9375C4.28906 9 4.62656 9.16875 4.8375 9.45L7.875 13.5H15.1102L11.6648 1.43437C11.4539 0.717187 11.9953 0 12.7406 0H16.6922C17.5008 0 18.2461 0.435938 18.6469 1.13203L25.7133 13.5H33.9117Z" fill="black"/>
</g>
<defs>
<clipPath id="clip0_1045171_232">
<path d="M0 0H40.5V36H0V0Z" fill="white"/>
</clipPath>
</defs>
</svg>
