<svg width="36" height="36" viewBox="0 0 36 36" fill="none" xmlns="http://www.w3.org/2000/svg">
<g clip-path="url(#clip0_1045171_239)">
<path d="M0 2.25C0 1.00547 1.00547 0 2.25 0H33.75C34.9945 0 36 1.00547 36 2.25C36 3.49453 34.9945 4.5 33.75 4.5V31.5C34.9945 31.5 36 32.5055 36 33.75C36 34.9945 34.9945 36 33.75 36H21.375V32.625C21.375 30.7617 19.8633 29.25 18 29.25C16.1367 29.25 14.625 30.7617 14.625 32.625V36H2.25C1.00547 36 0 34.9945 0 33.75C0 32.5055 1.00547 31.5 2.25 31.5V4.5C1.00547 4.5 0 3.49453 0 2.25ZM6.75 7.875V10.125C6.75 10.7437 7.25625 11.25 7.875 11.25H10.125C10.7437 11.25 11.25 10.7437 11.25 10.125V7.875C11.25 7.25625 10.7437 6.75 10.125 6.75H7.875C7.25625 6.75 6.75 7.25625 6.75 7.875ZM16.875 6.75C16.2563 6.75 15.75 7.25625 15.75 7.875V10.125C15.75 10.7437 16.2563 11.25 16.875 11.25H19.125C19.7437 11.25 20.25 10.7437 20.25 10.125V7.875C20.25 7.25625 19.7437 6.75 19.125 6.75H16.875ZM24.75 7.875V10.125C24.75 10.7437 25.2563 11.25 25.875 11.25H28.125C28.7437 11.25 29.25 10.7437 29.25 10.125V7.875C29.25 7.25625 28.7437 6.75 28.125 6.75H25.875C25.2563 6.75 24.75 7.25625 24.75 7.875ZM7.875 13.5C7.25625 13.5 6.75 14.0063 6.75 14.625V16.875C6.75 17.4937 7.25625 18 7.875 18H10.125C10.7437 18 11.25 17.4937 11.25 16.875V14.625C11.25 14.0063 10.7437 13.5 10.125 13.5H7.875ZM15.75 14.625V16.875C15.75 17.4937 16.2563 18 16.875 18H19.125C19.7437 18 20.25 17.4937 20.25 16.875V14.625C20.25 14.0063 19.7437 13.5 19.125 13.5H16.875C16.2563 13.5 15.75 14.0063 15.75 14.625ZM25.875 13.5C25.2563 13.5 24.75 14.0063 24.75 14.625V16.875C24.75 17.4937 25.2563 18 25.875 18H28.125C28.7437 18 29.25 17.4937 29.25 16.875V14.625C29.25 14.0063 28.7437 13.5 28.125 13.5H25.875ZM23.0625 27C23.9977 27 24.7711 26.2336 24.5391 25.3266C23.7938 22.4086 21.15 20.25 18 20.25C14.85 20.25 12.1992 22.4086 11.4609 25.3266C11.2289 26.2266 12.0094 27 12.9375 27H23.0625Z" fill="black"/>
</g>
<defs>
<clipPath id="clip0_1045171_239">
<path d="M0 0H36V36H0V0Z" fill="white"/>
</clipPath>
</defs>
</svg>
