<svg xmlns="http://www.w3.org/2000/svg" xmlns:v="https://svgstorm.com"
viewBox = "0 0 187 126"
width="187"
height="126">
<g fill="None" fill-opacity="0.0" stroke="#FFFFFF" stroke-opacity="1.00" stroke-width="0.3"><path d="
M 0.00 126.00 
L 187.00 126.00
L 187.00 0.00
L 0.00 0.00
L 0.00 126.00
M 133.00 18.00 
C 139.72 4.83 159.42 0.79 171.00 10.00
C 164.66 10.47 155.40 14.48 150.00 9.00
C 147.09 9.82 149.15 12.86 148.00 14.00
C 143.21 16.21 136.84 16.74 134.00 22.00
C 129.78 17.25 116.93 17.80 119.00 10.00
C 116.54 9.47 113.87 10.58 113.00 13.00
C 107.83 10.50 100.93 11.96 96.00 10.00
C 106.74 0.73 126.45 5.12 133.00 18.00
M 125.00 21.00 
C 120.35 23.38 113.07 21.99 109.00 26.00
C 106.15 23.84 104.98 20.64 101.00 23.00
C 106.80 30.53 89.07 28.74 90.00 38.00
C 79.12 35.21 88.39 22.08 96.69 19.69 C 105.00 17.31 116.88 15.15 125.00 21.00
M 164.00 23.00 
C 161.18 20.33 159.28 23.78 158.00 26.00
C 152.70 23.32 146.05 23.29 141.00 21.00
C 146.89 17.95 154.10 16.11 161.00 17.00 C 167.90 17.89 171.57 20.92 177.25 24.75 C 182.92 28.58 178.51 42.69 174.70 35.30 C 170.88 27.91 162.35 30.92 164.00 23.00
M 131.00 25.00 
C 123.96 30.25 118.82 37.09 110.00 39.00
C 115.91 40.59 110.68 47.41 113.00 51.00
C 104.51 52.99 100.06 39.12 106.30 33.30 C 112.55 27.49 122.06 24.02 131.00 25.00
M 154.00 52.00 
C 155.30 47.28 150.67 41.48 156.00 39.00
C 146.89 38.49 142.23 28.91 135.00 25.00
C 150.92 19.72 175.63 42.81 154.00 52.00
M 137.00 36.00 
C 134.48 35.44 130.70 37.19 129.00 35.00
C 129.17 26.43 137.53 27.55 137.00 36.00
M 138.00 48.00 
C 134.67 48.00 131.33 48.00 128.00 48.00
C 127.33 45.06 129.09 42.82 129.00 40.00
C 135.08 37.81 139.10 41.50 138.00 48.00
M 111.00 71.00 
C 104.81 68.68 97.92 62.38 92.00 68.00
C 95.02 78.54 112.45 76.15 112.00 87.00 C 111.54 97.86 92.18 106.34 91.00 94.00
C 99.88 96.50 103.31 86.67 99.25 80.75 C 95.18 74.84 83.95 79.09 86.00 71.00
C 76.37 74.08 54.65 71.77 56.79 57.77 C 58.92 43.78 77.21 44.74 88.02 46.98 C 98.84 49.21 110.92 58.53 111.00 71.00
M 139.00 62.00 
C 135.00 62.00 131.00 62.00 127.00 62.00
C 126.58 58.12 127.40 54.64 128.00 51.00
C 134.80 49.77 141.55 53.24 139.00 62.00
M 83.00 75.00 
C 83.00 86.67 83.00 98.33 83.00 110.00
C 76.33 110.00 69.67 110.00 63.00 110.00
C 63.00 103.33 63.00 96.67 63.00 90.00
C 55.00 90.00 47.00 90.00 39.00 90.00
C 37.08 94.75 43.61 105.28 39.22 109.22 C 34.83 113.17 24.27 107.88 19.00 110.00
C 19.00 98.00 19.00 86.00 19.00 74.00
C 14.72 73.98 6.59 82.74 11.00 88.00 C 15.41 93.26 7.54 101.04 5.70 94.30 C 3.86 87.56 5.62 81.04 8.26 75.26 C 10.89 69.47 16.22 69.09 21.23 65.23 C 26.24 61.37 29.13 59.32 36.07 57.07 C 43.01 54.83 50.23 55.87 50.33 63.67 C 50.43 71.47 58.83 70.79 63.02 73.98 C 67.22 77.16 78.06 76.49 83.00 75.00
M 140.00 65.00 
C 142.08 69.25 130.75 75.83 126.78 71.22 C 122.81 66.61 135.23 62.22 140.00 65.00
M 147.00 73.00 
C 132.31 81.99 108.25 81.15 97.00 68.00
C 104.95 70.93 111.21 73.49 120.02 74.98 C 128.83 76.47 139.59 72.63 147.00 73.00
M 141.00 80.00 
C 144.18 89.08 127.62 87.06 125.00 84.00
C 129.67 81.70 136.14 82.82 141.00 80.00
M 142.00 89.00 
C 141.80 92.81 142.99 97.12 140.00 100.00
C 144.81 99.55 142.83 106.81 144.00 110.00
C 136.67 110.00 129.33 110.00 122.00 110.00
C 123.06 103.12 124.49 96.29 124.00 89.00
C 130.00 89.00 136.00 89.00 142.00 89.00
M 169.00 113.00 
C 158.27 128.31 136.86 122.68 119.00 123.00 C 101.14 123.32 76.93 123.68 59.00 123.00 C 41.07 122.32 18.36 128.71 7.00 114.00
C 61.03 113.22 115.02 115.30 169.00 113.00 Z"/>
</g>
<g fill="None" fill-opacity="0.0" stroke="#000000" stroke-opacity="1.00" stroke-width="0.3"><path d="
M 133.00 18.00 
C 126.45 5.12 106.74 0.73 96.00 10.00
C 100.93 11.96 107.83 10.50 113.00 13.00
C 113.87 10.58 116.54 9.47 119.00 10.00
C 116.93 17.80 129.78 17.25 134.00 22.00
C 136.84 16.74 143.21 16.21 148.00 14.00
C 149.15 12.86 147.09 9.82 150.00 9.00
C 155.40 14.48 164.66 10.47 171.00 10.00
C 159.42 0.79 139.72 4.83 133.00 18.00 Z"/>
</g>
<g fill="None" fill-opacity="0.0" stroke="#000000" stroke-opacity="1.00" stroke-width="0.3"><path d="
M 125.00 21.00 
C 116.88 15.15 105.00 17.31 96.69 19.69 C 88.39 22.08 79.12 35.21 90.00 38.00
C 89.07 28.74 106.80 30.53 101.00 23.00
C 104.98 20.64 106.15 23.84 109.00 26.00
C 113.07 21.99 120.35 23.38 125.00 21.00 Z"/>
</g>
<g fill="None" fill-opacity="0.0" stroke="#000000" stroke-opacity="1.00" stroke-width="0.3"><path d="
M 164.00 23.00 
C 162.35 30.92 170.88 27.91 174.70 35.30 C 178.51 42.69 182.92 28.58 177.25 24.75 C 171.57 20.92 167.90 17.89 161.00 17.00 C 154.10 16.11 146.89 17.95 141.00 21.00
C 146.05 23.29 152.70 23.32 158.00 26.00
C 159.28 23.78 161.18 20.33 164.00 23.00 Z"/>
</g>
<g fill="None" fill-opacity="0.0" stroke="#000000" stroke-opacity="1.00" stroke-width="0.3"><path d="
M 131.00 25.00 
C 122.06 24.02 112.55 27.49 106.30 33.30 C 100.06 39.12 104.51 52.99 113.00 51.00
C 110.68 47.41 115.91 40.59 110.00 39.00
C 118.82 37.09 123.96 30.25 131.00 25.00 Z"/>
</g>
<g fill="None" fill-opacity="0.0" stroke="#000000" stroke-opacity="1.00" stroke-width="0.3"><path d="
M 154.00 52.00 
C 175.63 42.81 150.92 19.72 135.00 25.00
C 142.23 28.91 146.89 38.49 156.00 39.00
C 150.67 41.48 155.30 47.28 154.00 52.00 Z"/>
</g>
<g fill="None" fill-opacity="0.0" stroke="#000000" stroke-opacity="1.00" stroke-width="0.3"><path d="
M 137.00 36.00 
C 137.53 27.55 129.17 26.43 129.00 35.00
C 130.70 37.19 134.48 35.44 137.00 36.00 Z"/>
</g>
<g fill="None" fill-opacity="0.0" stroke="#000000" stroke-opacity="1.00" stroke-width="0.3"><path d="
M 138.00 48.00 
C 139.10 41.50 135.08 37.81 129.00 40.00
C 129.09 42.82 127.33 45.06 128.00 48.00
C 131.33 48.00 134.67 48.00 138.00 48.00 Z"/>
</g>
<g fill="None" fill-opacity="0.0" stroke="#000000" stroke-opacity="1.00" stroke-width="0.3"><path d="
M 111.00 71.00 
C 110.92 58.53 98.84 49.21 88.02 46.98 C 77.21 44.74 58.92 43.78 56.79 57.77 C 54.65 71.77 76.37 74.08 86.00 71.00
C 83.95 79.09 95.18 74.84 99.25 80.75 C 103.31 86.67 99.88 96.50 91.00 94.00
C 92.18 106.34 111.54 97.86 112.00 87.00 C 112.45 76.15 95.02 78.54 92.00 68.00
C 97.92 62.38 104.81 68.68 111.00 71.00
M 98.00 58.00 
C 93.28 66.16 89.23 52.98 98.00 58.00 Z"/>
</g>
<g fill="None" fill-opacity="0.0" stroke="#000000" stroke-opacity="1.00" stroke-width="0.3"><path d="
M 139.00 62.00 
C 141.55 53.24 134.80 49.77 128.00 51.00
C 127.40 54.64 126.58 58.12 127.00 62.00
C 131.00 62.00 135.00 62.00 139.00 62.00 Z"/>
</g>
<g fill="None" fill-opacity="0.0" stroke="#000000" stroke-opacity="1.00" stroke-width="0.3"><path d="
M 83.00 75.00 
C 78.06 76.49 67.22 77.16 63.02 73.98 C 58.83 70.79 50.43 71.47 50.33 63.67 C 50.23 55.87 43.01 54.83 36.07 57.07 C 29.13 59.32 26.24 61.37 21.23 65.23 C 16.22 69.09 10.89 69.47 8.26 75.26 C 5.62 81.04 3.86 87.56 5.70 94.30 C 7.54 101.04 15.41 93.26 11.00 88.00 C 6.59 82.74 14.72 73.98 19.00 74.00
C 19.00 86.00 19.00 98.00 19.00 110.00
C 24.27 107.88 34.83 113.17 39.22 109.22 C 43.61 105.28 37.08 94.75 39.00 90.00
C 47.00 90.00 55.00 90.00 63.00 90.00
C 63.00 96.67 63.00 103.33 63.00 110.00
C 69.67 110.00 76.33 110.00 83.00 110.00
C 83.00 98.33 83.00 86.67 83.00 75.00 Z"/>
</g>
<g fill="None" fill-opacity="0.0" stroke="#FFFFFF" stroke-opacity="1.00" stroke-width="0.3"><path d="
M 98.00 58.00 
C 89.23 52.98 93.28 66.16 98.00 58.00 Z"/>
</g>
<g fill="None" fill-opacity="0.0" stroke="#000000" stroke-opacity="1.00" stroke-width="0.3"><path d="
M 140.00 65.00 
C 135.23 62.22 122.81 66.61 126.78 71.22 C 130.75 75.83 142.08 69.25 140.00 65.00 Z"/>
</g>
<g fill="None" fill-opacity="0.0" stroke="#000000" stroke-opacity="1.00" stroke-width="0.3"><path d="
M 147.00 73.00 
C 139.59 72.63 128.83 76.47 120.02 74.98 C 111.21 73.49 104.95 70.93 97.00 68.00
C 108.25 81.15 132.31 81.99 147.00 73.00 Z"/>
</g>
<g fill="None" fill-opacity="0.0" stroke="#000000" stroke-opacity="1.00" stroke-width="0.3"><path d="
M 141.00 80.00 
C 136.14 82.82 129.67 81.70 125.00 84.00
C 127.62 87.06 144.18 89.08 141.00 80.00 Z"/>
</g>
<g fill="None" fill-opacity="0.0" stroke="#000000" stroke-opacity="1.00" stroke-width="0.3"><path d="
M 142.00 89.00 
C 136.00 89.00 130.00 89.00 124.00 89.00
C 124.49 96.29 123.06 103.12 122.00 110.00
C 129.33 110.00 136.67 110.00 144.00 110.00
C 142.83 106.81 144.81 99.55 140.00 100.00
C 142.99 97.12 141.80 92.81 142.00 89.00 Z"/>
</g>
<g fill="None" fill-opacity="0.0" stroke="#000000" stroke-opacity="1.00" stroke-width="0.3"><path d="
M 169.00 113.00 
C 115.02 115.30 61.03 113.22 7.00 114.00
C 18.36 128.71 41.07 122.32 59.00 123.00 C 76.93 123.68 101.14 123.32 119.00 123.00 C 136.86 122.68 158.27 128.31 169.00 113.00 Z"/>
</g>
<g fill="#FFFFFF" fill-opacity="1.00" stroke="None">
<path d="
M 0.00 126.00 
L 187.00 126.00
L 187.00 0.00
L 0.00 0.00
L 0.00 126.00
M 133.00 18.00 
C 139.72 4.83 159.42 0.79 171.00 10.00
C 164.66 10.47 155.40 14.48 150.00 9.00
C 147.09 9.82 149.15 12.86 148.00 14.00
C 143.21 16.21 136.84 16.74 134.00 22.00
C 129.78 17.25 116.93 17.80 119.00 10.00
C 116.54 9.47 113.87 10.58 113.00 13.00
C 107.83 10.50 100.93 11.96 96.00 10.00
C 106.74 0.73 126.45 5.12 133.00 18.00
M 125.00 21.00 
C 120.35 23.38 113.07 21.99 109.00 26.00
C 106.15 23.84 104.98 20.64 101.00 23.00
C 106.80 30.53 89.07 28.74 90.00 38.00
C 79.12 35.21 88.39 22.08 96.69 19.69 C 105.00 17.31 116.88 15.15 125.00 21.00
M 164.00 23.00 
C 161.18 20.33 159.28 23.78 158.00 26.00
C 152.70 23.32 146.05 23.29 141.00 21.00
C 146.89 17.95 154.10 16.11 161.00 17.00 C 167.90 17.89 171.57 20.92 177.25 24.75 C 182.92 28.58 178.51 42.69 174.70 35.30 C 170.88 27.91 162.35 30.92 164.00 23.00
M 131.00 25.00 
C 123.96 30.25 118.82 37.09 110.00 39.00
C 115.91 40.59 110.68 47.41 113.00 51.00
C 104.51 52.99 100.06 39.12 106.30 33.30 C 112.55 27.49 122.06 24.02 131.00 25.00
M 154.00 52.00 
C 155.30 47.28 150.67 41.48 156.00 39.00
C 146.89 38.49 142.23 28.91 135.00 25.00
C 150.92 19.72 175.63 42.81 154.00 52.00
M 137.00 36.00 
C 134.48 35.44 130.70 37.19 129.00 35.00
C 129.17 26.43 137.53 27.55 137.00 36.00
M 138.00 48.00 
C 134.67 48.00 131.33 48.00 128.00 48.00
C 127.33 45.06 129.09 42.82 129.00 40.00
C 135.08 37.81 139.10 41.50 138.00 48.00
M 111.00 71.00 
C 104.81 68.68 97.92 62.38 92.00 68.00
C 95.02 78.54 112.45 76.15 112.00 87.00 C 111.54 97.86 92.18 106.34 91.00 94.00
C 99.88 96.50 103.31 86.67 99.25 80.75 C 95.18 74.84 83.95 79.09 86.00 71.00
C 76.37 74.08 54.65 71.77 56.79 57.77 C 58.92 43.78 77.21 44.74 88.02 46.98 C 98.84 49.21 110.92 58.53 111.00 71.00
M 139.00 62.00 
C 135.00 62.00 131.00 62.00 127.00 62.00
C 126.58 58.12 127.40 54.64 128.00 51.00
C 134.80 49.77 141.55 53.24 139.00 62.00
M 83.00 75.00 
C 83.00 86.67 83.00 98.33 83.00 110.00
C 76.33 110.00 69.67 110.00 63.00 110.00
C 63.00 103.33 63.00 96.67 63.00 90.00
C 55.00 90.00 47.00 90.00 39.00 90.00
C 37.08 94.75 43.61 105.28 39.22 109.22 C 34.83 113.17 24.27 107.88 19.00 110.00
C 19.00 98.00 19.00 86.00 19.00 74.00
C 14.72 73.98 6.59 82.74 11.00 88.00 C 15.41 93.26 7.54 101.04 5.70 94.30 C 3.86 87.56 5.62 81.04 8.26 75.26 C 10.89 69.47 16.22 69.09 21.23 65.23 C 26.24 61.37 29.13 59.32 36.07 57.07 C 43.01 54.83 50.23 55.87 50.33 63.67 C 50.43 71.47 58.83 70.79 63.02 73.98 C 67.22 77.16 78.06 76.49 83.00 75.00
M 140.00 65.00 
C 142.08 69.25 130.75 75.83 126.78 71.22 C 122.81 66.61 135.23 62.22 140.00 65.00
M 147.00 73.00 
C 132.31 81.99 108.25 81.15 97.00 68.00
C 104.95 70.93 111.21 73.49 120.02 74.98 C 128.83 76.47 139.59 72.63 147.00 73.00
M 141.00 80.00 
C 144.18 89.08 127.62 87.06 125.00 84.00
C 129.67 81.70 136.14 82.82 141.00 80.00
M 142.00 89.00 
C 141.80 92.81 142.99 97.12 140.00 100.00
C 144.81 99.55 142.83 106.81 144.00 110.00
C 136.67 110.00 129.33 110.00 122.00 110.00
C 123.06 103.12 124.49 96.29 124.00 89.00
C 130.00 89.00 136.00 89.00 142.00 89.00
M 169.00 113.00 
C 158.27 128.31 136.86 122.68 119.00 123.00 C 101.14 123.32 76.93 123.68 59.00 123.00 C 41.07 122.32 18.36 128.71 7.00 114.00
C 61.03 113.22 115.02 115.30 169.00 113.00 Z"/>
</g>
<g fill="#000000" fill-opacity="1.00" stroke="None">
<path d="
M 133.00 18.00 
C 126.45 5.12 106.74 0.73 96.00 10.00
C 100.93 11.96 107.83 10.50 113.00 13.00
C 113.87 10.58 116.54 9.47 119.00 10.00
C 116.93 17.80 129.78 17.25 134.00 22.00
C 136.84 16.74 143.21 16.21 148.00 14.00
C 149.15 12.86 147.09 9.82 150.00 9.00
C 155.40 14.48 164.66 10.47 171.00 10.00
C 159.42 0.79 139.72 4.83 133.00 18.00 Z"/>
</g>
<g fill="#000000" fill-opacity="1.00" stroke="None">
<path d="
M 125.00 21.00 
C 116.88 15.15 105.00 17.31 96.69 19.69 C 88.39 22.08 79.12 35.21 90.00 38.00
C 89.07 28.74 106.80 30.53 101.00 23.00
C 104.98 20.64 106.15 23.84 109.00 26.00
C 113.07 21.99 120.35 23.38 125.00 21.00 Z"/>
</g>
<g fill="#000000" fill-opacity="1.00" stroke="None">
<path d="
M 164.00 23.00 
C 162.35 30.92 170.88 27.91 174.70 35.30 C 178.51 42.69 182.92 28.58 177.25 24.75 C 171.57 20.92 167.90 17.89 161.00 17.00 C 154.10 16.11 146.89 17.95 141.00 21.00
C 146.05 23.29 152.70 23.32 158.00 26.00
C 159.28 23.78 161.18 20.33 164.00 23.00 Z"/>
</g>
<g fill="#000000" fill-opacity="1.00" stroke="None">
<path d="
M 131.00 25.00 
C 122.06 24.02 112.55 27.49 106.30 33.30 C 100.06 39.12 104.51 52.99 113.00 51.00
C 110.68 47.41 115.91 40.59 110.00 39.00
C 118.82 37.09 123.96 30.25 131.00 25.00 Z"/>
</g>
<g fill="#000000" fill-opacity="1.00" stroke="None">
<path d="
M 154.00 52.00 
C 175.63 42.81 150.92 19.72 135.00 25.00
C 142.23 28.91 146.89 38.49 156.00 39.00
C 150.67 41.48 155.30 47.28 154.00 52.00 Z"/>
</g>
<g fill="#000000" fill-opacity="1.00" stroke="None">
<path d="
M 137.00 36.00 
C 137.53 27.55 129.17 26.43 129.00 35.00
C 130.70 37.19 134.48 35.44 137.00 36.00 Z"/>
</g>
<g fill="#000000" fill-opacity="1.00" stroke="None">
<path d="
M 138.00 48.00 
C 139.10 41.50 135.08 37.81 129.00 40.00
C 129.09 42.82 127.33 45.06 128.00 48.00
C 131.33 48.00 134.67 48.00 138.00 48.00 Z"/>
</g>
<g fill="#000000" fill-opacity="1.00" stroke="None">
<path d="
M 111.00 71.00 
C 110.92 58.53 98.84 49.21 88.02 46.98 C 77.21 44.74 58.92 43.78 56.79 57.77 C 54.65 71.77 76.37 74.08 86.00 71.00
C 83.95 79.09 95.18 74.84 99.25 80.75 C 103.31 86.67 99.88 96.50 91.00 94.00
C 92.18 106.34 111.54 97.86 112.00 87.00 C 112.45 76.15 95.02 78.54 92.00 68.00
C 97.92 62.38 104.81 68.68 111.00 71.00
M 98.00 58.00 
C 93.28 66.16 89.23 52.98 98.00 58.00 Z"/>
</g>
<g fill="#000000" fill-opacity="1.00" stroke="None">
<path d="
M 139.00 62.00 
C 141.55 53.24 134.80 49.77 128.00 51.00
C 127.40 54.64 126.58 58.12 127.00 62.00
C 131.00 62.00 135.00 62.00 139.00 62.00 Z"/>
</g>
<g fill="#000000" fill-opacity="1.00" stroke="None">
<path d="
M 83.00 75.00 
C 78.06 76.49 67.22 77.16 63.02 73.98 C 58.83 70.79 50.43 71.47 50.33 63.67 C 50.23 55.87 43.01 54.83 36.07 57.07 C 29.13 59.32 26.24 61.37 21.23 65.23 C 16.22 69.09 10.89 69.47 8.26 75.26 C 5.62 81.04 3.86 87.56 5.70 94.30 C 7.54 101.04 15.41 93.26 11.00 88.00 C 6.59 82.74 14.72 73.98 19.00 74.00
C 19.00 86.00 19.00 98.00 19.00 110.00
C 24.27 107.88 34.83 113.17 39.22 109.22 C 43.61 105.28 37.08 94.75 39.00 90.00
C 47.00 90.00 55.00 90.00 63.00 90.00
C 63.00 96.67 63.00 103.33 63.00 110.00
C 69.67 110.00 76.33 110.00 83.00 110.00
C 83.00 98.33 83.00 86.67 83.00 75.00 Z"/>
</g>
<g fill="#FFFFFF" fill-opacity="1.00" stroke="None">
<path d="
M 98.00 58.00 
C 89.23 52.98 93.28 66.16 98.00 58.00 Z"/>
</g>
<g fill="#000000" fill-opacity="1.00" stroke="None">
<path d="
M 140.00 65.00 
C 135.23 62.22 122.81 66.61 126.78 71.22 C 130.75 75.83 142.08 69.25 140.00 65.00 Z"/>
</g>
<g fill="#000000" fill-opacity="1.00" stroke="None">
<path d="
M 147.00 73.00 
C 139.59 72.63 128.83 76.47 120.02 74.98 C 111.21 73.49 104.95 70.93 97.00 68.00
C 108.25 81.15 132.31 81.99 147.00 73.00 Z"/>
</g>
<g fill="#000000" fill-opacity="1.00" stroke="None">
<path d="
M 141.00 80.00 
C 136.14 82.82 129.67 81.70 125.00 84.00
C 127.62 87.06 144.18 89.08 141.00 80.00 Z"/>
</g>
<g fill="#000000" fill-opacity="1.00" stroke="None">
<path d="
M 142.00 89.00 
C 136.00 89.00 130.00 89.00 124.00 89.00
C 124.49 96.29 123.06 103.12 122.00 110.00
C 129.33 110.00 136.67 110.00 144.00 110.00
C 142.83 106.81 144.81 99.55 140.00 100.00
C 142.99 97.12 141.80 92.81 142.00 89.00 Z"/>
</g>
<g fill="#000000" fill-opacity="1.00" stroke="None">
<path d="
M 169.00 113.00 
C 115.02 115.30 61.03 113.22 7.00 114.00
C 18.36 128.71 41.07 122.32 59.00 123.00 C 76.93 123.68 101.14 123.32 119.00 123.00 C 136.86 122.68 158.27 128.31 169.00 113.00 Z"/>
</g>
</svg>